<svg id="Layer_1" data-name="Layer 1" xmlns="http://www.w3.org/2000/svg" xmlns:xlink="http://www.w3.org/1999/xlink" viewBox="0 0 360 360"><defs><style>.cls-1{fill:url(#linear-gradient);}</style><linearGradient id="linear-gradient" x1="180.27" y1="81.24" x2="180.27" y2="272.86" gradientUnits="userSpaceOnUse"><stop offset="0.39" stop-color="#cfb5be"/><stop offset="0.63" stop-color="#27aae1"/><stop offset="0.74" stop-color="#25a0da"/><stop offset="0.92" stop-color="#1e84c7"/><stop offset="1" stop-color="#1b75bc"/></linearGradient></defs><title>adventure logo</title><path class="cls-1" d="M265.75,153.28,206.84,94.37a37.66,37.66,0,0,0-53.14,0L94.78,153.28a37.69,37.69,0,0,0,0,53.14l58.92,58.92a37.66,37.66,0,0,0,53.14,0l58.91-58.92a37.66,37.66,0,0,0,0-53.14ZM202.92,253.55,199,257.48a26.54,26.54,0,0,1-37.43,0L154,249.94c7-6,13.53-11,26.32-11s19.24,4.95,26.25,10.93Zm55-55-35.22,35.21-7.83,7.84-.39.39c-7.89-6.75-17-14.16-34.14-14.16s-26.3,7.44-34.2,14.2l-2.25-2.25-41.23-41.23a26.22,26.22,0,0,1-2.52-3C104.77,192.82,110.2,191,118,191c13.51,0,20,5.56,27.51,12,8,6.88,17.13,14.68,34.75,14.68S206.94,209.85,215,203c7.51-6.44,14-12,27.51-12,7.8,0,13.25,1.86,17.91,4.67A26.43,26.43,0,0,1,257.9,198.57ZM146.35,174.73a33.92,33.92,0,1,1,33.92,33.92A33.91,33.91,0,0,1,146.35,174.73ZM265,185.46a44.25,44.25,0,0,0-22.54-5.61A45.62,45.62,0,0,0,224,183.43a44.54,44.54,0,1,0-88.32-8.15,44.16,44.16,0,0,0,.79,8.2A45.32,45.32,0,0,0,118,179.85a44.15,44.15,0,0,0-22.45,5.57,27.07,27.07,0,0,1-.59-5.57,26.25,26.25,0,0,1,7.72-18.71l58.91-58.92a26.57,26.57,0,0,1,37.43,0l58.92,58.92A26.45,26.45,0,0,1,265,185.46Z"/></svg>