<svg xmlns="http://www.w3.org/2000/svg" viewBox="102.51599999999999 55 369.96875 430"> <svg xmlns="http://www.w3.org/2000/svg" xmlns:xlink="http://www.w3.org/1999/xlink" id="Layer_1" dataName="Layer 1" viewBox="83.82146453857422 83.3991470336914 192.89938354492188 192.91171264648438" height="230" width="229.96875" y="125" x="172.516" preserveAspectRatio="xMinYMin" style="overflow: visible;"><linearGradient id="linear-gradient" x1="180.27" y1="81.24" x2="180.27" y2="272.86" gradientUnits="userSpaceOnUse" style=""><stop offset="0.39" stop-color="#cfb5be"></stop><stop offset="0.63" stop-color="#27aae1"></stop><stop offset="0.74" stop-color="#25a0da"></stop><stop offset="0.92" stop-color="#1e84c7"></stop><stop offset="1" stop-color="#1b75bc"></stop></linearGradient><path class="cls-1" d="M265.75,153.28,206.84,94.37a37.66,37.66,0,0,0-53.14,0L94.78,153.28a37.69,37.69,0,0,0,0,53.14l58.92,58.92a37.66,37.66,0,0,0,53.14,0l58.91-58.92a37.66,37.66,0,0,0,0-53.14ZM202.92,253.55,199,257.48a26.54,26.54,0,0,1-37.43,0L154,249.94c7-6,13.53-11,26.32-11s19.24,4.95,26.25,10.93Zm55-55-35.22,35.21-7.83,7.84-.39.39c-7.89-6.75-17-14.16-34.14-14.16s-26.3,7.44-34.2,14.2l-2.25-2.25-41.23-41.23a26.22,26.22,0,0,1-2.52-3C104.77,192.82,110.2,191,118,191c13.51,0,20,5.56,27.51,12,8,6.88,17.13,14.68,34.75,14.68S206.94,209.85,215,203c7.51-6.44,14-12,27.51-12,7.8,0,13.25,1.86,17.91,4.67A26.43,26.43,0,0,1,257.9,198.57ZM146.35,174.73a33.92,33.92,0,1,1,33.92,33.92A33.91,33.91,0,0,1,146.35,174.73ZM265,185.46a44.25,44.25,0,0,0-22.54-5.61A45.62,45.62,0,0,0,224,183.43a44.54,44.54,0,1,0-88.32-8.15,44.16,44.16,0,0,0,.79,8.2A45.32,45.32,0,0,0,118,179.85a44.15,44.15,0,0,0-22.45,5.57,27.07,27.07,0,0,1-.59-5.57,26.25,26.25,0,0,1,7.72-18.71l58.91-58.92a26.57,26.57,0,0,1,37.43,0l58.92,58.92A26.45,26.45,0,0,1,265,185.46Z" style="fill: url(#linear-gradient);"></path></svg> <svg y="387" viewBox="3.759999990463257 10.720000267028809 91.43999481201172 28" x="241.78000259399414" height="28" width="91.43999481201172" style="overflow: visible;"><g fill="#288bb7" fill-opacity="1" style=""><path d="M3.76 38.72L3.76 10.72L8.96 10.72L8.96 38.72L3.76 38.72ZM45.44 38.72L39.84 38.72L34.12 30.52Q33.76 30.56 33.04 30.56L33.04 30.56L26.72 30.56L26.72 38.72L21.52 38.72L21.52 10.72L33.04 10.72Q36.68 10.72 39.38 11.92Q42.08 13.12 43.52 15.36Q44.96 17.60 44.96 20.68L44.96 20.68Q44.96 23.84 43.42 26.12Q41.88 28.40 39 29.52L39 29.52L45.44 38.72ZM39.72 20.68Q39.72 18 37.96 16.56Q36.20 15.12 32.80 15.12L32.80 15.12L26.72 15.12L26.72 26.28L32.80 26.28Q36.20 26.28 37.96 24.82Q39.72 23.36 39.72 20.68L39.72 20.68ZM79.68 38.72L74.08 38.72L68.36 30.52Q68 30.56 67.28 30.56L67.28 30.56L60.96 30.56L60.96 38.72L55.76 38.72L55.76 10.72L67.28 10.72Q70.92 10.72 73.62 11.92Q76.32 13.12 77.76 15.36Q79.20 17.60 79.20 20.68L79.20 20.68Q79.20 23.84 77.66 26.12Q76.12 28.40 73.24 29.52L73.24 29.52L79.68 38.72ZM73.96 20.68Q73.96 18 72.20 16.56Q70.44 15.12 67.04 15.12L67.04 15.12L60.96 15.12L60.96 26.28L67.04 26.28Q70.44 26.28 72.20 24.82Q73.96 23.36 73.96 20.68L73.96 20.68ZM90.00 38.72L90.00 10.72L95.20 10.72L95.20 38.72L90.00 38.72Z" transform="translate(0, 0)"></path></g></svg></svg>